<?xml version="1.0" encoding="UTF-8" standalone="no"?>
<svg
   xmlns:dc="http://purl.org/dc/elements/1.1/"
   xmlns:cc="http://creativecommons.org/ns#"
   xmlns:rdf="http://www.w3.org/1999/02/22-rdf-syntax-ns#"
   xmlns:svg="http://www.w3.org/2000/svg"
   xmlns="http://www.w3.org/2000/svg"
   xmlns:sodipodi="http://sodipodi.sourceforge.net/DTD/sodipodi-0.dtd"
   xmlns:inkscape="http://www.inkscape.org/namespaces/inkscape"
   sodipodi:docname="blobs-bg.svg"
   inkscape:version="1.0 (4035a4fb49, 2020-05-01)"
   id="svg9322"
   version="1.1"
   viewBox="0 0 454.918 208.39999"
   height="208.39999mm"
   width="454.918mm">
  <defs
     id="defs9316">
    <clipPath
       clipPathUnits="userSpaceOnUse"
       id="clipPath4133">
      <path
         d="M 597.929,0 H 1280 V 590.739 H 597.929 Z"
         id="path4131" />
    </clipPath>
    <clipPath
       clipPathUnits="userSpaceOnUse"
       id="clipPath4141">
      <path
         d="M 825.576,674.079 H 1928.22 V -410.739 H 825.576 Z"
         id="path4139" />
    </clipPath>
    <clipPath
       clipPathUnits="userSpaceOnUse"
       id="clipPath4093">
      <path
         d="m 0.342,0 h 641.14 V 591.494 H 0.342 Z"
         id="path4091" />
    </clipPath>
    <clipPath
       clipPathUnits="userSpaceOnUse"
       id="clipPath4101">
      <path
         d="M -85.7535,417.644 H 175.153 V -40.0041 H -85.7535 Z"
         id="path4099" />
    </clipPath>
    <clipPath
       clipPathUnits="userSpaceOnUse"
       id="clipPath4117">
      <path
         d="M 172.285,430.458 H 545.574 V 102.567 H 172.285 Z"
         id="path4115" />
    </clipPath>
    <clipPath
       clipPathUnits="userSpaceOnUse"
       id="clipPath3277">
      <path
         d="M -3.40013,593.997 H 1286.13 V 1.40154 H -3.40013 Z"
         id="path3275" />
    </clipPath>
  </defs>
  <sodipodi:namedview
     inkscape:window-maximized="1"
     inkscape:window-y="-8"
     inkscape:window-x="-8"
     inkscape:window-height="1017"
     inkscape:window-width="1920"
     showgrid="false"
     inkscape:document-rotation="0"
     inkscape:current-layer="layer1"
     inkscape:document-units="mm"
     inkscape:cy="859.23816"
     inkscape:cx="673.15349"
     inkscape:zoom="0.98994949"
     inkscape:pageshadow="2"
     inkscape:pageopacity="0.0"
     borderopacity="1.0"
     bordercolor="#666666"
     pagecolor="#ffffff"
     id="base" />
  <metadata
     id="metadata9319">
    <rdf:RDF>
      <cc:Work
         rdf:about="">
        <dc:format>image/svg+xml</dc:format>
        <dc:type
           rdf:resource="http://purl.org/dc/dcmitype/StillImage" />
        <dc:title></dc:title>
      </cc:Work>
    </rdf:RDF>
  </metadata>
  <g
     id="layer1"
     inkscape:groupmode="layer"
     inkscape:label="Layer 1">
    <g
       transform="matrix(0.35277777,0,0,-0.35277777,1.19944,209.54929)"
       id="g3271">
      <g
         id="g3273" />
      <g
         id="g3283">
        <g
           clip-path="url(#clipPath3277)"
           opacity="0.300003"
           id="g3281">
          <path
             d="M 1286.132,1.401 H -3.4 v 592.597 h 1289.532 z"
             style="fill:#808080;fill-opacity:1;fill-rule:nonzero;stroke:none"
             id="path3279" />
        </g>
      </g>
    </g>
    <g
       transform="matrix(0.35277777,0,0,-0.35277777,-0.12065,209.05505)"
       id="g4087">
      <g
         id="g4089"
         clip-path="url(#clipPath4093)">
        <g
           id="g4095">
          <g
             id="g4097" />
          <g
             id="g4109">
            <g
               clip-path="url(#clipPath4101)"
               opacity="0.100006"
               id="g4107">
              <g
                 transform="translate(-84.9121,179.0341)"
                 id="g4105">
                <path
                   d="m 0,0 c 17.66,-229.805 259.452,-214.861 260.065,-219.038 -0.002,0.013 -67.086,457.274 -67.14,457.648 C 193.273,235.756 -15.69,204.173 0,0"
                   style="fill:#808080;fill-opacity:1;fill-rule:nonzero;stroke:none"
                   id="path4103" />
              </g>
            </g>
          </g>
        </g>
        <g
           id="g4111">
          <g
             id="g4113" />
          <g
             id="g4125">
            <g
               clip-path="url(#clipPath4117)"
               opacity="0.100006"
               id="g4123">
              <g
                 transform="translate(253.8836,364.9344)"
                 id="g4121">
                <path
                   d="m 0,0 c -52.864,-52.438 -86.816,-125.917 -80.94,-184.367 11.044,-109.832 154.626,-79.507 225.735,-53.057 100.292,37.305 189.621,126.58 124.973,236.891 C 208.021,104.826 68.804,68.249 0,0"
                   style="fill:#808080;fill-opacity:1;fill-rule:nonzero;stroke:none"
                   id="path4119" />
              </g>
            </g>
          </g>
        </g>
      </g>
    </g>
    <g
       transform="matrix(0.35277777,0,0,-0.35277777,3.36267,208.39959)"
       id="g4127">
      <g
         id="g4129"
         clip-path="url(#clipPath4133)">
        <g
           id="g4135">
          <g
             id="g4137" />
          <g
             id="g4149">
            <g
               clip-path="url(#clipPath4141)"
               opacity="0.100006"
               id="g4147">
              <g
                 transform="translate(1200.1067,-105.1095)"
                 id="g4145">
                <path
                   d="m 0,0 c 25.288,2.273 76.185,27.989 92.196,-4.116 6.242,-12.516 5.088,-27.321 3.742,-41.262 -6.35,-65.821 -11.575,-129.498 29.381,-181.181 146.601,-184.988 420.891,-6.138 523.533,136.719 47.377,65.941 73.964,145.63 78.417,226.531 4.066,73.882 -5.132,172.547 -60.492,227.783 C 557.405,473.598 491.962,279.31 398.86,257.345 c -44.747,-10.557 -57.837,37.919 -60.888,72.12 -7.935,88.947 1.882,163.542 -44.342,243.306 -52.041,89.854 -152.13,127.241 -248.196,144.075 -66.226,11.604 -304.371,70.938 -351.066,61.286 -45.573,-9.421 -75.686,-42.98 -67.581,-90.199 C -347.881,540.403 -114.55,561.146 -76.576,415.255 -50.571,315.348 -214.642,-19.231 0,0"
                   style="fill:#808080;fill-opacity:1;fill-rule:nonzero;stroke:none"
                   id="path4143" />
              </g>
            </g>
          </g>
        </g>
      </g>
    </g>
  </g>
</svg>
