<?xml version="1.0" encoding="UTF-8" standalone="no"?>
<svg
   xmlns:dc="http://purl.org/dc/elements/1.1/"
   xmlns:cc="http://creativecommons.org/ns#"
   xmlns:rdf="http://www.w3.org/1999/02/22-rdf-syntax-ns#"
   xmlns:svg="http://www.w3.org/2000/svg"
   xmlns="http://www.w3.org/2000/svg"
   version="1.1"
   id="svg10"
   xml:space="preserve"
   width="232.967"
   height="26.743"
   viewBox="0 0 232.96699 26.743"><metadata
     id="metadata16"><rdf:RDF><cc:Work
         rdf:about=""><dc:format>image/svg+xml</dc:format><dc:type
           rdf:resource="http://purl.org/dc/dcmitype/StillImage" /><dc:title></dc:title></cc:Work></rdf:RDF></metadata><defs
     id="defs14" /><g
     id="g18"
     transform="matrix(1.3333333,0,0,-1.3333333,0,257.33333)"><path
       d="m 11.05199,187.598 h -0.0414 c -0.8969,1.106 -2.3981,1.637 -4.525,1.637 C 3.10699,189.235 0,187.342 0,183.0244 c 0,-4.3176 3.10699,-6.2105 6.48559,-6.2105 2.3144,0 3.7535,0.5957 4.6918,1.7015 h 0.0417 v -1.2336 h 5.0465 V 193 h -5.2136 z m -2.8563,-7.2111 c -2.023,0 -2.857,1.1066 -2.857,2.6375 0,1.4891 0.9594,2.6375 2.8359,2.6375 2.0227,0 2.8774,-0.9992 2.8774,-2.6375 0,-1.659 -0.8547,-2.6375 -2.8563,-2.6375"
       style="fill:#505d67;fill-opacity:1;fill-rule:evenodd;stroke:none;stroke-width:0.1"
       id="path24" /><path
       d="m 25.85779,189.385 c -5.1301,0 -8.1332,-2.2551 -8.1332,-6.275 0,-4.2543 3.1285,-6.2961 8.6125,-6.2961 2.3985,0 4.1918,0.3832 5.5262,1.0632 1.3348,0.6809 2.2105,1.6805 2.607,2.893 h -5.5472 c -0.5629,-0.7234 -1.3551,-1.0215 -2.711,-1.0215 -2.2937,0 -3.1488,1.2766 -3.1488,2.1063 h 11.4691 c 0.0836,5.8071 -3.6281,7.5301 -8.6746,7.5301 z m -2.7945,-4.85 c 0.2711,1.4675 1.3137,2.0418 3.1281,2.0418 1.7934,0 2.982,-0.7872 3.0863,-2.0418 h -6.2144"
       style="fill:#505d67;fill-opacity:1;fill-rule:evenodd;stroke:none;stroke-width:0.1"
       id="path26" /><path
       d="m 41.16369,186.683 h -0.0418 v 2.234 h -5.0465 v -11.6352 h 5.2133 v 4.3606 c 0,2.5097 1.9812,3.1265 3.8371,3.1265 0.9176,0 1.6894,-0.1918 2.6066,-0.4257 v 4.7648 c -0.5629,0.085 -1.1468,0.127 -1.7097,0.127 -1.7934,0 -3.5036,-0.744 -4.859,-2.552"
       style="fill:#505d67;fill-opacity:1;fill-rule:evenodd;stroke:none;stroke-width:0.1"
       id="path28" /><path
       d="m 66.10349,189.235 c -2.1058,0 -3.482,-0.872 -4.1914,-1.935 -0.6047,1.148 -1.5222,1.935 -3.7742,1.935 -2.1688,0 -3.4406,-0.829 -4.2539,-1.914 h -0.0418 v 1.596 h -5.0469 v -11.6352 h 5.2137 v 6.1684 c 0,1.425 0.6883,1.9566 1.7723,1.9566 0.9175,0 1.3972,-0.3828 1.3972,-1.5527 v -6.5723 h 5.0461 v 6.1684 c 0,1.425 0.6883,1.9566 1.7731,1.9566 0.9172,0 1.3972,-0.3828 1.3972,-1.5527 v -6.5723 h 5.2129 v 8.0188 c 0,2.8284 -2.0015,3.9344 -4.5043,3.9344"
       style="fill:#505d67;fill-opacity:1;fill-rule:evenodd;stroke:none;stroke-width:0.1"
       id="path30" /><path
       d="m 88.374186,184.7049 c 0,3.4671 -2.1062,4.6801 -7.4238,4.6801 -2.7527,0 -4.6504,-0.213 -5.9223,-0.809 -1.2925,-0.616 -1.9394,-1.595 -2.2519,-3.1907 h 5.2133 c 0.2504,1.1278 1.4386,1.3192 2.6273,1.3192 1.4805,0 2.4191,-0.3617 2.4191,-1.1274 0,-0.6386 -0.3546,-0.8929 -1.3972,-0.957 l -4.4,-0.2129 c -3.8574,-0.1703 -5.3383,-1.5312 -5.3383,-3.6586 0,-2.9777 2.2102,-3.9347 5.7133,-3.9347 2.7738,0 4.5465,0.5105 5.714,1.6164 0.0211,-0.4254 0.0836,-0.8082 0.1879,-1.1485 h 5.3383 c -0.2504,0.3828 -0.4797,0.9145 -0.4797,1.8082 z m -5.2133,-2.6375 c 0,-1.9992 -1.939,-2.4457 -3.691,-2.4457 -1.2929,0 -1.9394,0.5101 -1.9394,1.3187 0,0.7442 0.459,1.0633 1.4179,1.1481 1.8559,0.1707 3.3368,0.2984 4.2125,0.4894 v -0.5105"
       style="fill:#505d67;fill-opacity:1;fill-rule:evenodd;stroke:none;stroke-width:0.1"
       id="path32" /><path
       d="m 90.417186,177.2818 h 5.2139 V 193 h -5.2139 v -15.7182"
       style="fill:#505d67;fill-opacity:1;fill-rule:evenodd;stroke:none;stroke-width:0.1"
       id="path34" /><path
       d="m 105.53609,189.385 c -5.881004,0 -8.446004,-2 -8.446004,-6.275 0,-4.2969 2.565,-6.2961 8.446004,-6.2961 5.88,0 8.445,1.9992 8.445,6.2961 0,4.275 -2.565,6.275 -8.445,6.275 z m 0,-9.1254 c -2.086,0 -2.983,0.9785 -2.983,2.8504 0,1.8285 0.897,2.8285 2.983,2.8285 2.106,0 2.982,-1 2.982,-2.8285 0,-1.8719 -0.876,-2.8504 -2.982,-2.8504"
       style="fill:#505d67;fill-opacity:1;fill-rule:evenodd;stroke:none;stroke-width:0.1"
       id="path36" /><path
       d="m 126.41009,187.598 c -1.043,1.042 -2.607,1.637 -4.693,1.637 -3.878,0 -6.902,-1.956 -6.902,-5.6149 0,-3.6582 2.419,-5.6152 6.902,-5.6152 1.856,0 3.483,0.3191 4.525,1.2554 v -1 c 0,-1.5957 -0.73,-2.382 -2.856,-2.382 -0.793,0 -1.356,0.1063 -1.731,0.2973 -0.376,0.1918 -0.563,0.4679 -0.646,0.8508 h -5.756 c 0.5,-2.9137 2.565,-4.0836 8.258,-4.0836 5.213,0 7.945,1.4461 7.945,5.1687 v 10.8055 h -5.046 z m -3.17,-6.4029 c -2.148,0 -2.962,1.0641 -2.962,2.3184 0,1.2129 0.814,2.2761 2.962,2.2761 2.21,0 3.002,-1.0632 3.002,-2.2761 0,-1.2543 -0.792,-2.3184 -3.002,-2.3184"
       style="fill:#505d67;fill-opacity:1;fill-rule:evenodd;stroke:none;stroke-width:0.1"
       id="path38" /><path
       d="m 133.54109,190.065 h 5.212 V 193 h -5.212 v -2.935"
       style="fill:#505d67;fill-opacity:1;fill-rule:evenodd;stroke:none;stroke-width:0.1"
       id="path40" /><path
       d="m 133.54109,177.2818 h 5.212 v 11.6352 h -5.212 v -11.6352"
       style="fill:#505d67;fill-opacity:1;fill-rule:evenodd;stroke:none;stroke-width:0.1"
       id="path42" /><path
       d="m 148.82609,186.0662 c 0.667,0 1.397,-0.1062 1.877,-0.3613 0.584,-0.2981 0.917,-0.7449 0.979,-1.468 h 5.464 c -0.563,3.8711 -3.482,5.1481 -8.383,5.1481 -4.796,0 -8.549,-1.489 -8.549,-6.2543 0,-4.8278 3.753,-6.3168 8.549,-6.3168 3.587,0 7.841,0.5527 8.383,5.3812 h -5.464 c -0.354,-1.5098 -1.438,-1.9355 -2.898,-1.9355 -2.065,0 -3.107,1.1484 -3.107,2.9351 0,1.5528 0.813,2.8715 3.149,2.8715"
       style="fill:#505d67;fill-opacity:1;fill-rule:evenodd;stroke:none;stroke-width:0.1"
       id="path44" /><path
       d="m 174.24509,184.7049 c 0,3.4671 -2.106,4.6801 -7.423,4.6801 -2.753,0 -4.651,-0.213 -5.922,-0.809 -1.293,-0.616 -1.94,-1.595 -2.252,-3.1907 h 5.212 c 0.251,1.1278 1.44,1.3192 2.628,1.3192 1.481,0 2.419,-0.3617 2.419,-1.1274 0,-0.6386 -0.354,-0.8929 -1.397,-0.957 l -4.4,-0.2129 c -3.858,-0.1703 -5.339,-1.5312 -5.339,-3.6586 0,-2.9777 2.211,-3.9347 5.714,-3.9347 2.774,0 4.547,0.5105 5.714,1.6164 0.021,-0.4254 0.084,-0.8082 0.188,-1.1485 h 5.338 c -0.25,0.3828 -0.48,0.9145 -0.48,1.8082 z m -5.213,-2.6375 c 0,-1.9992 -1.94,-2.4457 -3.691,-2.4457 -1.292,0 -1.939,0.5101 -1.939,1.3187 0,0.7442 0.458,1.0633 1.418,1.1481 1.856,0.1707 3.336,0.2984 4.212,0.4894 v -0.5105"
       style="fill:#505d67;fill-opacity:1;fill-rule:evenodd;stroke:none;stroke-width:0.1"
       id="path46" /></g></svg>
